<?xml version="1.0" encoding="UTF-8" standalone="no"?>
<svg
   version="1.0"
   width="1500pt"
   height="1500pt"
   viewBox="0 0 1500 1500"
   preserveAspectRatio="xMidYMid meet"
   id="svg20"
   sodipodi:docname="Favicon.svg"
   inkscape:version="1.1 (c68e22c387, 2021-05-23)"
   inkscape:export-filename="C:\Users\dalra\Downloads\eTecno Color.png"
   inkscape:export-xdpi="106.21"
   inkscape:export-ydpi="106.21"
   xmlns:inkscape="http://www.inkscape.org/namespaces/inkscape"
   xmlns:sodipodi="http://sodipodi.sourceforge.net/DTD/sodipodi-0.dtd"
   xmlns:xlink="http://www.w3.org/1999/xlink"
   xmlns="http://www.w3.org/2000/svg"
   xmlns:svg="http://www.w3.org/2000/svg">
  <defs
     id="defs24">
    <linearGradient
       inkscape:collect="always"
       id="linearGradient10407-5">
      <stop
         style="stop-color:#ffc304;stop-opacity:1"
         offset="0"
         id="stop10403" />
      <stop
         style="stop-color:#ff495c;stop-opacity:1"
         offset="0.25510329"
         id="stop10800" />
      <stop
         style="stop-color:#46237a;stop-opacity:1"
         offset="0.48240465"
         id="stop10930" />
      <stop
         style="stop-color:#256eff;stop-opacity:1"
         offset="0.81499553"
         id="stop11252" />
      <stop
         style="stop-color:#01f5bd;stop-opacity:1"
         offset="1"
         id="stop10405" />
    </linearGradient>
    <linearGradient
       inkscape:collect="always"
       xlink:href="#linearGradient10407-5"
       id="linearGradient10409"
       x1="16546.299"
       y1="13055.691"
       x2="1125.9315"
       y2="2726.4937"
       gradientUnits="userSpaceOnUse" />
    <linearGradient
       inkscape:collect="always"
       xlink:href="#linearGradient10407-5"
       id="linearGradient1396"
       gradientUnits="userSpaceOnUse"
       x1="16546.299"
       y1="13055.691"
       x2="1125.9315"
       y2="2726.4937"
       gradientTransform="matrix(1.3504689,0,0,1.3504689,-6776.0303,-4369.3441)" />
  </defs>
  <sodipodi:namedview
     id="namedview22"
     pagecolor="#ffffff"
     bordercolor="#666666"
     borderopacity="1.0"
     inkscape:pageshadow="2"
     inkscape:pageopacity="0.0"
     inkscape:pagecheckerboard="0"
     inkscape:document-units="pt"
     showgrid="false"
     inkscape:zoom="0.15320647"
     inkscape:cx="1207.5208"
     inkscape:cy="1184.6758"
     inkscape:window-width="1366"
     inkscape:window-height="705"
     inkscape:window-x="-8"
     inkscape:window-y="-8"
     inkscape:window-maximized="1"
     inkscape:current-layer="g18" />
  <g
     transform="matrix(0.1,0,0,-0.1,0,1800)"
     fill="#000000"
     stroke="none"
     id="g18"
     style="fill:url(#linearGradient10409);fill-opacity:1;stroke:none;stroke-width:80;stroke-miterlimit:4;stroke-dasharray:none;stroke-opacity:1">
    <path
       d="m 6920.4257,17332.693 c -542.8885,-44.566 -983.1414,-236.332 -1319.4081,-573.95 -203.9209,-203.92 -341.6687,-413.243 -449.7062,-684.687 -135.0469,-341.669 -164.7572,-542.888 -164.7572,-1137.094 v -453.759 H 3752.2256 2516.5465 l -8.1029,-56.718 c -25.6588,-182.314 -600.9586,-5947.4682 -600.9586,-6021.7435 0,-414.594 216.0751,-781.9214 556.3932,-949.3793 225.5283,-110.7388 316.0097,-124.2434 935.875,-128.2948 1219.4734,-8.1028 2202.6148,-28.3599 2272.8392,-47.2665 195.8181,-52.6683 298.4537,-182.3134 348.421,-437.552 40.5141,-213.374 29.7103,-316.0097 -106.687,-1029.0573 l -126.9441,-654.9775 10.8037,-155.3039 c 31.0608,-448.3556 225.5284,-765.7159 572.5988,-938.5758 203.9208,-101.2852 425.3977,-151.2526 810.2815,-182.3134 239.0329,-20.257 3530.1257,-43.2149 3788.0657,-25.6589 1091.178,68.874 1756.959,479.4165 1995.992,1228.9267 85.08,266.0424 105.337,630.6691 56.721,1052.0154 -9.453,78.3272 -230.932,1978.4375 -494.273,4224.2678 -263.34,2245.83 -478.066,4090.57 -478.066,4101.374 0,17.557 -159.354,20.257 -1214.07,20.257 H 9621.3634 l -6.7524,422.697 c -5.4016,359.225 -10.8032,441.603 -35.1119,555.043 -81.028,388.935 -218.7761,707.646 -419.996,979.089 -311.9582,421.347 -761.6644,702.245 -1327.5108,830.539 -236.3321,54.019 -657.6785,82.379 -911.5666,62.122 z m 632.0195,-925.071 c 613.1128,-108.038 987.1928,-459.16 1130.3425,-1058.768 31.0607,-128.294 35.1122,-179.612 40.5141,-503.725 l 6.7523,-361.926 H 7302.6084 5873.8123 l 8.1028,456.459 c 6.7523,382.182 12.1543,474.014 35.1122,571.248 70.2244,310.608 207.9722,540.188 419.9958,699.543 152.6029,114.79 333.5659,183.663 573.9493,217.426 118.8412,17.556 494.2716,5.402 641.4728,-20.257 z M 4973.0496,13085.469 c 0,-461.861 1.3504,-496.974 27.0092,-565.848 39.1637,-102.635 118.8413,-187.714 226.8789,-240.383 76.9766,-37.814 102.6356,-44.565 191.7666,-43.214 133.6963,0 245.7853,48.616 330.8648,143.148 109.388,121.543 113.4394,144.501 124.2432,706.297 l 8.1028,492.92 H 7297.2065 8712.498 l 4.0514,-495.622 c 5.4018,-584.753 5.4018,-580.701 137.7479,-714.398 99.9346,-98.584 182.3132,-133.696 325.463,-132.345 170.159,0 321.4117,99.934 397.0379,260.639 l 35.112,75.627 4.0516,503.726 4.0516,502.373 812.9826,-2.701 811.631,-4.052 415.945,-3531.475 c 228.229,-1941.9759 430.8,-3682.7305 451.056,-3869.0951 58.071,-536.1361 47.267,-736.0055 -49.967,-927.7721 -118.842,-236.3321 -407.842,-388.9351 -883.207,-465.9119 -137.748,-22.958 -266.042,-24.3084 -1829.8851,-20.257 -1974.3856,4.0514 -2262.0356,13.5048 -2501.0685,85.0795 -105.3366,31.0609 -128.2945,55.3694 -145.8507,162.0564 -10.8036,64.8224 1.3505,143.1497 112.089,707.6457 l 124.2431,634.7203 -1.3504,249.8368 c 0,348.421 -49.9675,598.2578 -167.4582,842.6926 -91.8319,191.7662 -252.5377,387.5846 -413.2435,502.3749 -171.5095,122.8928 -419.9958,216.0742 -653.6269,247.1351 -55.3693,6.7527 -702.244,20.257 -1438.2495,29.7101 -1043.9125,12.1546 -1346.4175,20.2581 -1381.5298,33.7624 -52.6681,21.6078 -70.2244,62.1217 -70.2244,164.7575 0,41.8636 116.1405,1216.7739 256.5892,2611.8068 141.7993,1393.685 256.5891,2538.882 256.5891,2542.933 0,4.052 371.379,6.753 823.786,6.753 h 823.7862 z"
       id="path2"
       style="mix-blend-mode:soft-light;fill:url(#linearGradient1396);fill-opacity:1;stroke:none;stroke-width:108.037;stroke-miterlimit:4;stroke-dasharray:none;stroke-opacity:1" />
  </g>
</svg>
